HIERARCHY
ROOT Hips
{
	OFFSET 0.000000 0.000000 0.000000
	CHANNELS 6 Xposition Yposition Zposition Zrotation Yrotation Xrotation
	JOINT LeftUpLeg
	{
		OFFSET 0.103459 1.857827 10.548521
		CHANNELS 6 Xposition Yposition Zposition Zrotation Yrotation Xrotation
		JOINT LeftLeg
		{
			OFFSET 43.499979 0.000107 0.000090
			CHANNELS 6 Xposition Yposition Zposition Zrotation Yrotation Xrotation
			JOINT LeftFoot
			{
				OFFSET 42.372168 0.000034 0.000010
				CHANNELS 6 Xposition Yposition Zposition Zrotation Yrotation Xrotation
				JOINT LeftToe
				{
					OFFSET 17.299924 -0.000089 0.000018
					CHANNELS 6 Xposition Yposition Zposition Zrotation Yrotation Xrotation
					End Site
					{
						OFFSET 6.000000 0.000000 0.000000
					}
				}
			}
		}
	}
	JOINT RightUpLeg
	{
		OFFSET 0.103456 1.857863 -10.548456
		CHANNELS 6 Xposition Yposition Zposition Zrotation Yrotation Xrotation
		JOINT RightLeg
		{
			OFFSET 43.500042 -0.000002 0.000029
			CHANNELS 6 Xposition Yposition Zposition Zrotation Yrotation Xrotation
			JOINT RightFoot
			{
				OFFSET 42.372205 0.000033 0.000070
				CHANNELS 6 Xposition Yposition Zposition Zrotation Yrotation Xrotation
				JOINT RightToe
				{
					OFFSET 17.299951 -0.000065 0.000070
					CHANNELS 6 Xposition Yposition Zposition Zrotation Yrotation Xrotation
					End Site
					{
						OFFSET 6.000000 0.000000 0.000000
					}
				}
			}
		}
	}
	JOINT Spine
	{
		OFFSET 6.901935 -2.603664 0.000033
		CHANNELS 6 Xposition Yposition Zposition Zrotation Yrotation Xrotation
		JOINT Spine1
		{
			OFFSET 12.588142 0.000010 -0.000051
			CHANNELS 6 Xposition Yposition Zposition Zrotation Yrotation Xrotation
			JOINT Spine2
			{
				OFFSET 12.343166 -0.000098 0.000026
				CHANNELS 6 Xposition Yposition Zposition Zrotation Yrotation Xrotation
				JOINT Neck
				{
					OFFSET 25.832894 0.000061 0.000061
					CHANNELS 6 Xposition Yposition Zposition Zrotation Yrotation Xrotation
					JOINT Head
					{
						OFFSET 11.766657 -0.000023 -0.000040
						CHANNELS 6 Xposition Yposition Zposition Zrotation Yrotation Xrotation
						End Site
						{
							OFFSET 12.000000 0.000000 0.000000
						}
					}
				}
				JOINT LeftShoulder
				{
					OFFSET 19.745926 -1.480308 6.000100
					CHANNELS 6 Xposition Yposition Zposition Zrotation Yrotation Xrotation
					JOINT LeftArm
					{
						OFFSET 11.284141 -0.000067 -0.000035
						CHANNELS 6 Xposition Yposition Zposition Zrotation Yrotation Xrotation
						JOINT LeftForeArm
						{
							OFFSET 33.000033 0.000026 -0.000005
							CHANNELS 6 Xposition Yposition Zposition Zrotation Yrotation Xrotation
							JOINT LeftHand
							{
								OFFSET 25.200056 0.000059 -0.000020
								CHANNELS 6 Xposition Yposition Zposition Zrotation Yrotation Xrotation
								End Site
								{
									OFFSET 9.000000 0.000000 0.000000
								}
							}
						}
					}
				}
				JOINT RightShoulder
				{
					OFFSET 19.746108 -1.480276 -5.999995
					CHANNELS 6 Xposition Yposition Zposition Zrotation Yrotation Xrotation
					JOINT RightArm
					{
						OFFSET 11.284248 -0.000015 -0.000063
						CHANNELS 6 Xposition Yposition Zposition Zrotation Yrotation Xrotation
						JOINT RightForeArm
						{
							OFFSET 33.000071 0.000058 0.000097
							CHANNELS 6 Xposition Yposition Zposition Zrotation Yrotation Xrotation
							JOINT RightHand
							{
								OFFSET 25.199705 0.000114 0.000349
								CHANNELS 6 Xposition Yposition Zposition Zrotation Yrotation Xrotation
								End Site
								{
									OFFSET 9.000000 0.000000 0.000000
								}
							}
						}
					}
				}
			}
		}
	}
}
MOTION
Frames: 4
Frame Time: 0.0333333
0.0000 91.3000 0.0000 89.6203 0.6521 92.2224 0.1035 1.8578 10.5485 175.5293 -3.8257 173.0279 43.5000 0.0001 0.0001 -16.0277 0.9075 2.3035 42.3722 0.0000 0.0000 76.1176 -2.3185 -2.3862 17.2999 -0.0001 0.0000 21.4546 0.0031 -0.0001 0.1035 1.8579 -10.5485 177.8012 2.2829 -176.7837 43.5000 -0.0000 0.0000 -14.5718 4.1893 6.2428 42.3722 0.0000 0.0001 77.8747 -3.7746 2.9214 17.3000 -0.0001 0.0001 21.4546 -0.0031 0.0000 6.9019 -2.6037 0.0000 5.4772 0.2412 0.3966 12.5881 0.0000 -0.0001 0.9434 0.4744 0.7952 12.3432 -0.0001 0.0000 0.6253 0.4793 0.7923 25.8329 0.0001 0.0001 0.9662 6.3279 -2.4273 11.7667 -0.0000 -0.0000 14.9072 -14.1441 -0.3639 19.7459 -1.4803 6.0001 -64.7437 -84.2445 -117.5602 11.2841 -0.0001 -0.0000 -37.3506 76.5733 -39.0877 33.0000 0.0000 -0.0000 -21.6812 -9.0098 -3.7744 25.2001 0.0001 -0.0000 12.8595 1.5532 18.3587 19.7461 -1.4803 -6.0000 -82.6696 80.1309 99.9540 11.2842 -0.0000 -0.0001 -5.9074 -42.9921 15.5223 33.0001 0.0001 0.0001 -12.8193 -12.5526 13.7456 25.1997 0.0001 0.0003 12.2982 10.3537 -7.4738
0.0837 91.3251 0.0000 89.7877 0.6521 92.2224 0.1035 1.8578 10.5485 175.5323 -3.7590 173.0219 43.5000 0.0001 0.0001 -16.0277 0.9075 2.3035 42.3722 0.0000 0.0000 76.1089 -2.3606 -2.4766 17.2999 -0.0001 0.0000 21.4546 0.0031 -0.0001 0.1035 1.8579 -10.5485 177.8037 2.3497 -176.7870 43.5000 -0.0000 0.0000 -14.5718 4.1893 6.2428 42.3722 0.0000 0.0001 77.8949 -3.8147 2.8302 17.3000 -0.0001 0.0001 21.4546 -0.0031 0.0000 6.9019 -2.6037 0.0000 5.4837 0.0746 0.3826 12.5881 0.0000 -0.0001 0.9434 0.4744 0.7952 12.3432 -0.0001 0.0000 0.6325 0.3548 0.7783 25.8329 0.0001 0.0001 0.9662 6.3279 -2.4273 11.7667 -0.0000 -0.0000 14.8748 -14.3104 -0.0641 19.7459 -1.4803 6.0001 -63.7080 -84.1778 -118.6102 11.2841 -0.0001 -0.0000 -36.7393 76.6512 -38.4493 33.0000 0.0000 -0.0000 -21.6812 -9.0098 -3.7744 25.2001 0.0001 -0.0000 12.8595 1.5532 18.3587 19.7461 -1.4803 -6.0000 -83.3795 80.1600 99.2425 11.2842 -0.0000 -0.0001 -5.9805 -43.9764 15.5323 33.0001 0.0001 0.0001 -11.9833 -18.2717 14.7631 25.1997 0.0001 0.0003 12.2982 10.3537 -7.4738
0.1668 91.3500 0.0000 89.9539 0.6521 92.2224 0.1035 1.8578 10.5485 175.5353 -3.6929 173.0160 43.5000 0.0001 0.0001 -16.0277 0.9075 2.3035 42.3722 0.0000 0.0000 76.1004 -2.4024 -2.5664 17.2999 -0.0001 0.0000 21.4546 0.0031 -0.0001 0.1035 1.8579 -10.5485 177.8061 2.4160 -176.7903 43.5000 -0.0000 0.0000 -14.5718 4.1893 6.2428 42.3722 0.0000 0.0001 77.9149 -3.8544 2.7396 17.3000 -0.0001 0.0001 21.4546 -0.0031 0.0000 6.9019 -2.6037 0.0000 5.4901 -0.0909 0.3686 12.5881 0.0000 -0.0001 0.9434 0.4744 0.7952 12.3432 -0.0001 0.0000 0.6397 0.2312 0.7643 25.8329 0.0001 0.0001 0.9662 6.3279 -2.4273 11.7667 -0.0000 -0.0000 14.8418 -14.4754 0.2338 19.7459 -1.4803 6.0001 -62.7032 -84.1096 -119.6292 11.2841 -0.0001 -0.0000 -36.1252 76.7270 -37.8084 33.0000 0.0000 -0.0000 -21.6812 -9.0098 -3.7744 25.2001 0.0001 -0.0000 12.8595 1.5532 18.3587 19.7461 -1.4803 -6.0000 -84.0885 80.1874 98.5319 11.2842 -0.0000 -0.0001 -6.0467 -44.8513 15.5427 33.0001 0.0001 0.0001 -11.3122 -23.3640 15.6374 25.1997 0.0001 0.0003 12.2982 10.3537 -7.4738
0.2487 91.3746 0.0000 90.1177 0.6521 92.2224 0.1035 1.8578 10.5485 175.5382 -3.6277 173.0101 43.5000 0.0001 0.0001 -16.0277 0.9075 2.3035 42.3722 0.0000 0.0000 76.0920 -2.4436 -2.6549 17.2999 -0.0001 0.0000 21.4546 0.0031 -0.0001 0.1035 1.8579 -10.5485 177.8085 2.4814 -176.7936 43.5000 -0.0000 0.0000 -14.5718 4.1893 6.2428 42.3722 0.0000 0.0001 77.9347 -3.8935 2.6503 17.3000 -0.0001 0.0001 21.4546 -0.0031 0.0000 6.9019 -2.6037 0.0000 5.4965 -0.2540 0.3548 12.5881 0.0000 -0.0001 0.9434 0.4744 0.7952 12.3432 -0.0001 0.0000 0.6468 0.1093 0.7506 25.8329 0.0001 0.0001 0.9662 6.3279 -2.4273 11.7667 -0.0000 -0.0000 14.8087 -14.6378 0.5278 19.7459 -1.4803 6.0001 -61.7356 -84.0406 -120.6108 11.2841 -0.0001 -0.0000 -35.5128 76.8002 -37.1695 33.0000 0.0000 -0.0000 -21.6812 -9.0098 -3.7744 25.2001 0.0001 -0.0000 12.8595 1.5532 18.3587 19.7461 -1.4803 -6.0000 -84.7913 80.2129 97.8275 11.2842 -0.0000 -0.0001 -6.0981 -45.5193 15.5518 33.0001 0.0001 0.0001 -10.8435 -27.2572 16.2935 25.1997 0.0001 0.0003 12.2982 10.3537 -7.4738
